<svg width="32" height="32" viewBox="0 0 32 32" fill="none" xmlns="http://www.w3.org/2000/svg">
<path d="M16.0002 0C14.2455 0 12.8002 1.44532 12.8002 3.2H8.5335C6.77886 3.2 5.3335 4.64537 5.3335 6.4V25.6C5.3335 27.3546 6.77886 28.8 8.5335 28.8H23.4668C25.2215 28.8 26.6668 27.3546 26.6668 25.6V6.4C26.6668 4.64537 25.2215 3.2 23.4668 3.2H19.2002C19.2002 1.44532 17.7548 0 16.0002 0ZM16.0002 2.13333C16.6019 2.13333 17.0668 2.59826 17.0668 3.2C17.0668 3.80174 16.6019 4.26667 16.0002 4.26667C15.3984 4.26667 14.9335 3.80174 14.9335 3.2C14.9335 2.59826 15.3984 2.13333 16.0002 2.13333ZM8.5335 5.33333H12.8002V6.4C12.8002 6.9888 13.278 7.46667 13.8668 7.46667H18.1335C18.7223 7.46667 19.2002 6.9888 19.2002 6.4V5.33333H23.4668C24.0695 5.33333 24.5335 5.7973 24.5335 6.4V25.6C24.5335 26.2027 24.0695 26.6667 23.4668 26.6667H8.5335C7.9308 26.6667 7.46683 26.2027 7.46683 25.6V6.4C7.46683 5.7973 7.9308 5.33333 8.5335 5.33333ZM11.7335 11.7333C11.5921 11.7313 11.4518 11.7574 11.3207 11.8102C11.1895 11.8629 11.0701 11.9411 10.9694 12.0404C10.8688 12.1396 10.7888 12.2579 10.7343 12.3883C10.6797 12.5187 10.6516 12.6586 10.6516 12.8C10.6516 12.9414 10.6797 13.0813 10.7343 13.2117C10.7888 13.3421 10.8688 13.4604 10.9694 13.5596C11.0701 13.6589 11.1895 13.7371 11.3207 13.7898C11.4518 13.8426 11.5921 13.8687 11.7335 13.8667H20.2668C20.4082 13.8687 20.5485 13.8426 20.6797 13.7898C20.8108 13.7371 20.9302 13.6589 21.0309 13.5596C21.1315 13.4604 21.2115 13.3421 21.266 13.2117C21.3206 13.0813 21.3487 12.9414 21.3487 12.8C21.3487 12.6586 21.3206 12.5187 21.266 12.3883C21.2115 12.2579 21.1315 12.1396 21.0309 12.0404C20.9302 11.9411 20.8108 11.8629 20.6797 11.8102C20.5485 11.7574 20.4082 11.7313 20.2668 11.7333H11.7335ZM11.7335 16C11.5921 15.998 11.4518 16.0241 11.3207 16.0768C11.1895 16.1295 11.0701 16.2078 10.9694 16.307C10.8688 16.4063 10.7888 16.5245 10.7343 16.6549C10.6797 16.7854 10.6516 16.9253 10.6516 17.0667C10.6516 17.208 10.6797 17.348 10.7343 17.4784C10.7888 17.6088 10.8688 17.7271 10.9694 17.8263C11.0701 17.9256 11.1895 18.0038 11.3207 18.0565C11.4518 18.1092 11.5921 18.1353 11.7335 18.1333H17.0668C17.2082 18.1353 17.3485 18.1092 17.4797 18.0565C17.6108 18.0038 17.7302 17.9256 17.8309 17.8263C17.9315 17.7271 18.0115 17.6088 18.066 17.4784C18.1206 17.348 18.1487 17.208 18.1487 17.0667C18.1487 16.9253 18.1206 16.7854 18.066 16.6549C18.0115 16.5245 17.9315 16.4063 17.8309 16.307C17.7302 16.2078 17.6108 16.1295 17.4797 16.0768C17.3485 16.0241 17.2082 15.998 17.0668 16H11.7335ZM11.7335 20.2667C11.5921 20.2647 11.4518 20.2908 11.3207 20.3435C11.1895 20.3962 11.0701 20.4744 10.9694 20.5737C10.8688 20.6729 10.7888 20.7912 10.7343 20.9216C10.6797 21.052 10.6516 21.192 10.6516 21.3333C10.6516 21.4747 10.6797 21.6146 10.7343 21.7451C10.7888 21.8755 10.8688 21.9937 10.9694 22.093C11.0701 22.1922 11.1895 22.2705 11.3207 22.3232C11.4518 22.3759 11.5921 22.402 11.7335 22.4H20.2668C20.4082 22.402 20.5485 22.3759 20.6797 22.3232C20.8108 22.2705 20.9302 22.1922 21.0309 22.093C21.1315 21.9937 21.2115 21.8755 21.266 21.7451C21.3206 21.6146 21.3487 21.4747 21.3487 21.3333C21.3487 21.192 21.3206 21.052 21.266 20.9216C21.2115 20.7912 21.1315 20.6729 21.0309 20.5737C20.9302 20.4744 20.8108 20.3962 20.6797 20.3435C20.5485 20.2908 20.4082 20.2647 20.2668 20.2667H11.7335Z" fill="black"/>
</svg>
