<svg width="16" height="16" viewBox="0 0 16 16" fill="none" xmlns="http://www.w3.org/2000/svg">
<path d="M3.73345 2.13345C3.59698 2.13345 3.46037 2.18543 3.35637 2.2897L2.2897 3.35637C2.08117 3.5649 2.08117 3.90253 2.2897 4.11053L6.17929 8.00012L2.2897 11.8897C2.08117 12.0982 2.08117 12.4359 2.2897 12.6439L3.35637 13.7105C3.5649 13.9191 3.90253 13.9191 4.11053 13.7105L8.00012 9.82095L11.8897 13.7105C12.0977 13.9191 12.4359 13.9191 12.6439 13.7105L13.7105 12.6439C13.9191 12.4353 13.9191 12.0977 13.7105 11.8897L9.82095 8.00012L13.7105 4.11053C13.9191 3.90253 13.9191 3.56437 13.7105 3.35637L12.6439 2.2897C12.4353 2.08117 12.0977 2.08117 11.8897 2.2897L8.00012 6.17929L4.11053 2.2897C4.00627 2.18543 3.86992 2.13345 3.73345 2.13345Z" fill="#242323"/>
</svg>
