<svg width="32" height="32" viewBox="0 0 32 32" fill="none" xmlns="http://www.w3.org/2000/svg">
<path d="M6.40006 4.26666C5.23412 4.26666 4.26672 5.23406 4.26672 6.4V25.6C4.26672 26.7659 5.23412 27.7333 6.40006 27.7333H25.6001C26.766 27.7333 27.7334 26.7659 27.7334 25.6V6.4C27.7334 5.23406 26.766 4.26666 25.6001 4.26666H6.40006ZM6.40006 6.4H25.6001V25.6H6.40006V6.4ZM9.60006 8.53333C9.01126 8.53333 8.53339 9.0112 8.53339 9.6V13.8667C8.53339 14.4555 9.01126 14.9333 9.60006 14.9333H13.8667C14.4555 14.9333 14.9334 14.4555 14.9334 13.8667V9.6C14.9334 9.0112 14.4555 8.53333 13.8667 8.53333H9.60006ZM18.1334 8.53333C17.5446 8.53333 17.0667 9.0112 17.0667 9.6V13.8667C17.0667 14.4555 17.5446 14.9333 18.1334 14.9333H22.4001C22.9889 14.9333 23.4667 14.4555 23.4667 13.8667V9.6C23.4667 9.0112 22.9889 8.53333 22.4001 8.53333H18.1334ZM9.60006 17.0667C9.01126 17.0667 8.53339 17.5445 8.53339 18.1333V22.4C8.53339 22.9888 9.01126 23.4667 9.60006 23.4667H13.8667C14.4555 23.4667 14.9334 22.9888 14.9334 22.4V18.1333C14.9334 17.5445 14.4555 17.0667 13.8667 17.0667H9.60006ZM18.1334 17.0667C17.5446 17.0667 17.0667 17.5445 17.0667 18.1333V22.4C17.0667 22.9888 17.5446 23.4667 18.1334 23.4667H22.4001C22.9889 23.4667 23.4667 22.9888 23.4667 22.4V18.1333C23.4667 17.5445 22.9889 17.0667 22.4001 17.0667H18.1334Z" fill="#206259"/>
</svg>
