<svg width="24" height="24" viewBox="0 0 24 24" fill="none" xmlns="http://www.w3.org/2000/svg">
<path d="M21.074 1.89331C20.8644 1.90803 20.6513 2.00327 20.4836 2.1709L19.782 2.8645L21.1633 4.25537L21.8525 3.54932C22.1972 3.18669 22.2246 2.68727 21.8804 2.34302L21.6445 2.09839C21.4904 1.94426 21.2836 1.87859 21.074 1.89331ZM19.1147 3.53027L11.7107 10.9438L10.8948 12.739C10.804 12.9475 11.04 13.1829 11.2485 13.1016L13.1067 12.3215L20.5107 4.91748L19.1147 3.53027ZM6.38306 4.13306C5.14218 4.13306 4.13306 5.14218 4.13306 6.38306V17.6169C4.13306 18.8578 5.14218 19.8669 6.38306 19.8669H17.6169C18.8578 19.8669 19.8669 18.8578 19.8669 17.6169V7.1521L18.3677 8.6521V17.6169C18.3677 18.0306 18.0313 18.3669 17.6177 18.3669H6.38306C5.96943 18.3669 5.63306 18.0306 5.63306 17.6169V6.38306C5.63306 5.96943 5.96943 5.63306 6.38306 5.63306H15.4255L16.9233 4.13306H6.38306Z" fill="black"/>
</svg>
