<svg width="32" height="32" viewBox="0 0 32 32" fill="none" xmlns="http://www.w3.org/2000/svg">
<g clip-path="url(#clip0_67_684)">
<path d="M16.0225 0.673779C15.8781 0.668812 15.7362 0.712868 15.62 0.798779C10.7131 4.41415 5.80689 8.02969 0.900029 11.645C0.831297 11.6945 0.773068 11.7571 0.728715 11.8293C0.684361 11.9014 0.654766 11.9816 0.641643 12.0653C0.628519 12.149 0.63213 12.2344 0.652264 12.3167C0.672399 12.3989 0.708658 12.4764 0.758939 12.5445C0.809221 12.6127 0.872526 12.6702 0.945186 12.7137C1.01785 12.7572 1.09842 12.7858 1.18223 12.798C1.26604 12.8101 1.35143 12.8055 1.43345 12.7844C1.51547 12.7633 1.59248 12.7261 1.66003 12.675C6.44026 9.15299 11.2199 5.63079 16 2.10878C20.7802 5.63079 25.5598 9.15298 30.34 12.675C30.4076 12.7261 30.4846 12.7633 30.5666 12.7844C30.6486 12.8055 30.734 12.8101 30.8178 12.798C30.9016 12.7858 30.9822 12.7572 31.0549 12.7137C31.1275 12.6702 31.1908 12.6127 31.2411 12.5445C31.2914 12.4764 31.3277 12.3989 31.3478 12.3167C31.3679 12.2344 31.3715 12.149 31.3584 12.0653C31.3453 11.9816 31.3157 11.9014 31.2713 11.8293C31.227 11.7571 31.1688 11.6945 31.1 11.645C26.1932 8.02969 21.2869 4.41415 16.38 0.798779C16.2762 0.722004 16.1516 0.67843 16.0225 0.673779ZM8.96003 9.60003C7.9467 9.60003 7.10524 10.0031 6.56128 10.615C6.01732 11.227 5.76003 12.0178 5.76003 12.8C5.76003 13.5823 6.01732 14.3731 6.56128 14.985C7.10524 15.597 7.9467 16 8.96003 16C9.97336 16 10.8148 15.597 11.3588 14.985C11.9027 14.3731 12.16 13.5823 12.16 12.8C12.16 12.0178 11.9027 11.227 11.3588 10.615C10.8148 10.0031 9.97336 9.60003 8.96003 9.60003ZM22.4 9.60003C21.3867 9.60003 20.5452 10.0031 20.0013 10.615C19.4573 11.227 19.2 12.0178 19.2 12.8C19.2 13.5823 19.4573 14.3731 20.0013 14.985C20.5452 15.597 21.3867 16 22.4 16C23.4134 16 24.2548 15.597 24.7988 14.985C25.3427 14.3731 25.6 13.5823 25.6 12.8C25.6 12.0178 25.3427 11.227 24.7988 10.615C24.2548 10.0031 23.4134 9.60003 22.4 9.60003ZM8.96003 10.88C9.65336 10.88 10.0919 11.117 10.4013 11.465C10.7107 11.8131 10.88 12.3023 10.88 12.8C10.88 13.2978 10.7107 13.787 10.4013 14.135C10.0919 14.4831 9.65336 14.72 8.96003 14.72C8.2667 14.72 7.82815 14.4831 7.51878 14.135C7.20941 13.787 7.04003 13.2978 7.04003 12.8C7.04003 12.3023 7.20941 11.8131 7.51878 11.465C7.82815 11.117 8.2667 10.88 8.96003 10.88ZM22.4 10.88C23.0934 10.88 23.5319 11.117 23.8413 11.465C24.1507 11.8131 24.32 12.3023 24.32 12.8C24.32 13.2978 24.1507 13.787 23.8413 14.135C23.5319 14.4831 23.0934 14.72 22.4 14.72C21.7067 14.72 21.2681 14.4831 20.9588 14.135C20.6494 13.787 20.48 13.2978 20.48 12.8C20.48 12.3023 20.6494 11.8131 20.9588 11.465C21.2681 11.117 21.7067 10.88 22.4 10.88ZM6.08003 16.64C4.14447 16.64 2.56003 18.2251 2.56003 20.16V28.16C2.55884 28.2473 2.57553 28.334 2.60907 28.4146C2.6426 28.4952 2.69227 28.5681 2.75503 28.6288C2.98622 29.4296 3.60928 30.08 4.48003 30.08C4.70521 30.08 4.9185 30.0327 5.12003 29.96V30.72C5.11883 30.8048 5.1345 30.889 5.16612 30.9677C5.19775 31.0464 5.2447 31.1181 5.30425 31.1785C5.36379 31.2389 5.43475 31.2868 5.513 31.3196C5.59124 31.3523 5.67521 31.3691 5.76003 31.3691C5.84484 31.3691 5.92882 31.3523 6.00706 31.3196C6.0853 31.2868 6.15626 31.2389 6.21581 31.1785C6.27536 31.1181 6.32231 31.0464 6.35394 30.9677C6.38556 30.889 6.40123 30.8048 6.40003 30.72V28.16V21.76C6.4012 21.6744 6.38518 21.5894 6.35291 21.5101C6.32065 21.4308 6.27279 21.3587 6.21218 21.2982C6.15157 21.2377 6.07944 21.19 6.00006 21.1579C5.92067 21.1258 5.83565 21.1099 5.75003 21.1113C5.58051 21.1139 5.41896 21.1837 5.30085 21.3054C5.18274 21.427 5.11771 21.5905 5.12003 21.76V28.16C5.12003 28.5216 4.84165 28.8 4.48003 28.8C4.11841 28.8 3.84003 28.5216 3.84003 28.16V20.16C3.84003 18.9192 4.83862 17.92 6.08003 17.92H11.84C12.3191 17.92 12.759 18.0688 13.1225 18.3238C13.1912 18.3748 13.2693 18.4116 13.3524 18.4319C13.4355 18.4522 13.5218 18.4557 13.6063 18.4421C13.6908 18.4285 13.7716 18.3981 13.8441 18.3527C13.9166 18.3073 13.9793 18.2478 14.0284 18.1778C14.0776 18.1078 14.1122 18.0286 14.1302 17.945C14.1482 17.8614 14.1493 17.775 14.1333 17.691C14.1174 17.6069 14.0848 17.5269 14.0374 17.4557C13.99 17.3845 13.9289 17.3235 13.8575 17.2763C13.2867 16.8759 12.5872 16.64 11.84 16.64H6.08003ZM20.48 16.64C19.523 16.64 18.7793 17.0751 18.305 17.5788C18.2444 17.6393 18.1966 17.7114 18.1643 17.7908C18.1321 17.8702 18.1162 17.9553 18.1174 18.0409C18.1187 18.1266 18.1371 18.2112 18.1716 18.2896C18.2062 18.368 18.2561 18.4387 18.3185 18.4974C18.3808 18.5562 18.4543 18.6018 18.5347 18.6316C18.615 18.6615 18.7005 18.6749 18.7861 18.671C18.8717 18.6672 18.9556 18.6462 19.033 18.6093C19.1103 18.5724 19.1794 18.5204 19.2363 18.4563C19.5274 18.1471 19.8883 17.92 20.48 17.92H23.04H24.32C24.9111 17.92 25.2717 18.1468 25.5625 18.455C25.8534 18.7632 26.0377 19.1701 26.1113 19.3975C26.1113 19.3979 26.1113 19.3984 26.1113 19.3988C26.1113 19.3988 28.0858 25.4556 28.6725 27.2663C28.7747 27.5824 28.7297 27.8164 28.65 27.9475C28.5704 28.0786 28.4717 28.16 28.1975 28.16C27.9259 28.16 27.704 27.9858 27.625 27.7488C27.6164 27.7219 27.6059 27.6956 27.5938 27.67L25.7825 22.2075C25.7572 22.1264 25.716 22.0511 25.6613 21.9861C25.6065 21.9211 25.5394 21.8676 25.4638 21.8288C25.3882 21.7899 25.3056 21.7666 25.2209 21.76C25.1361 21.7535 25.0509 21.7639 24.9702 21.7906C24.8896 21.8173 24.815 21.8599 24.7509 21.9157C24.6869 21.9716 24.6346 22.0396 24.5971 22.1159C24.5596 22.1922 24.5377 22.2751 24.5326 22.36C24.5275 22.4448 24.5394 22.5298 24.5675 22.61L27.24 30.6713C27.2653 30.7524 27.3066 30.8277 27.3613 30.8927C27.416 30.9577 27.4831 31.0112 27.5588 31.05C27.6344 31.0888 27.717 31.1122 27.8017 31.1188C27.8864 31.1253 27.9716 31.1149 28.0523 31.0882C28.133 31.0615 28.2075 31.0189 28.2716 30.9631C28.3357 30.9072 28.388 30.8392 28.4255 30.7629C28.463 30.6866 28.4849 30.6037 28.49 30.5188C28.495 30.434 28.4832 30.349 28.455 30.2688L28.1788 29.4338C28.1858 29.4339 28.1905 29.44 28.1975 29.44C28.8463 29.44 29.4374 29.1166 29.7438 28.6125C30.0502 28.1084 30.0867 27.4768 29.8913 26.8725C29.3031 25.0573 27.3293 19.0043 27.3288 19.0025V19.0013C27.209 18.631 26.9663 18.0783 26.4925 17.5763C26.0184 17.0739 25.2758 16.64 24.32 16.64H23.04H20.48ZM16 18.56C15.2 18.56 14.5186 18.8831 14.0813 19.375C13.644 19.867 13.44 20.4978 13.44 21.12C13.44 21.7423 13.644 22.3731 14.0813 22.865C14.5186 23.357 15.2 23.68 16 23.68C16.8 23.68 17.4815 23.357 17.9188 22.865C18.3561 22.3731 18.56 21.7423 18.56 21.12C18.56 20.4978 18.3561 19.867 17.9188 19.375C17.4815 18.8831 16.8 18.56 16 18.56ZM16 19.84C16.48 19.84 16.7586 19.997 16.9613 20.225C17.164 20.4531 17.28 20.7823 17.28 21.12C17.28 21.4578 17.164 21.787 16.9613 22.015C16.7586 22.2431 16.48 22.4 16 22.4C15.52 22.4 15.2415 22.2431 15.0388 22.015C14.8361 21.787 14.72 21.4578 14.72 21.12C14.72 20.7823 14.8361 20.4531 15.0388 20.225C15.2415 19.997 15.52 19.84 16 19.84ZM14.08 24.32C12.6737 24.32 11.52 25.4737 11.52 26.88V30.72C11.5188 30.8048 11.5345 30.889 11.5661 30.9677C11.5977 31.0464 11.6447 31.1181 11.7042 31.1785C11.7638 31.2389 11.8348 31.2868 11.913 31.3196C11.9912 31.3523 12.0752 31.3691 12.16 31.3691C12.2448 31.3691 12.3288 31.3523 12.4071 31.3196C12.4853 31.2868 12.5563 31.2389 12.6158 31.1785C12.6754 31.1181 12.7223 31.0464 12.7539 30.9677C12.7856 30.889 12.8012 30.8048 12.8 30.72V26.88C12.8 26.1654 13.3654 25.6 14.08 25.6H17.92C18.6347 25.6 19.2 26.1654 19.2 26.88V30.72C19.1988 30.8048 19.2145 30.889 19.2461 30.9677C19.2777 31.0464 19.3247 31.1181 19.3842 31.1785C19.4438 31.2389 19.5148 31.2868 19.593 31.3196C19.6712 31.3523 19.7552 31.3691 19.84 31.3691C19.9248 31.3691 20.0088 31.3523 20.0871 31.3196C20.1653 31.2868 20.2363 31.2389 20.2958 31.1785C20.3554 31.1181 20.4023 31.0464 20.4339 30.9677C20.4656 30.889 20.4812 30.8048 20.48 30.72V26.88C20.48 25.4737 19.3263 24.32 17.92 24.32H14.08Z" fill="#206259"/>
</g>
<defs>
<clipPath id="clip0_67_684">
<rect width="32" height="32" fill="white"/>
</clipPath>
</defs>
</svg>
