<svg width="32" height="32" viewBox="0 0 32 32" fill="none" xmlns="http://www.w3.org/2000/svg">
<path d="M5.33328 3.20001C4.15675 3.20001 3.19995 4.15681 3.19995 5.33335V26.6667C3.19995 27.8432 4.15675 28.8 5.33328 28.8H20.2666C21.4432 28.8 22.4 27.8432 22.4 26.6667V17.0667H13.8666C13.2778 17.0667 12.8 16.5888 12.8 16C12.8 15.4112 13.2778 14.9333 13.8666 14.9333H22.4V5.33335C22.4 4.15681 21.4432 3.20001 20.2666 3.20001H5.33328ZM22.4 14.9333V17.0667H28.3583L25.9125 19.5125C25.8101 19.6108 25.7283 19.7285 25.672 19.8588C25.6157 19.9891 25.586 20.1293 25.5845 20.2712C25.5831 20.4131 25.61 20.5539 25.6636 20.6852C25.7173 20.8166 25.7966 20.936 25.8969 21.0364C25.9973 21.1367 26.1167 21.216 26.2481 21.2697C26.3794 21.3233 26.5202 21.3502 26.6621 21.3488C26.804 21.3473 26.9442 21.3176 27.0745 21.2613C27.2048 21.205 27.3225 21.1232 27.4208 21.0208L31.6875 16.7542C31.8874 16.5541 31.9997 16.2829 31.9997 16C31.9997 15.7172 31.8874 15.4459 31.6875 15.2458L27.4208 10.9792C27.3214 10.877 27.2025 10.7958 27.0712 10.7403C26.9399 10.6849 26.7988 10.6563 26.6562 10.6563C26.444 10.6563 26.2367 10.7197 26.0606 10.8382C25.8846 10.9567 25.748 11.125 25.6681 11.3216C25.5883 11.5182 25.5689 11.7342 25.6124 11.9418C25.6559 12.1495 25.7604 12.3395 25.9125 12.4875L28.3583 14.9333H22.4Z" fill="#242323"/>
</svg>
