<svg width="32" height="32" viewBox="0 0 32 32" fill="none" xmlns="http://www.w3.org/2000/svg">
<path d="M16 0C14.2454 0 12.8 1.44532 12.8 3.2H10.6667H8.53337C6.77874 3.2 5.33337 4.64537 5.33337 6.4V25.6C5.33337 27.3546 6.77874 28.8 8.53337 28.8H23.4667C25.2213 28.8 26.6667 27.3546 26.6667 25.6V6.4C26.6667 4.64537 25.2213 3.2 23.4667 3.2H21.3334H19.2C19.2 1.44532 17.7547 0 16 0ZM16 2.13333C16.6018 2.13333 17.0667 2.59826 17.0667 3.2C17.0667 3.80174 16.6018 4.26667 16 4.26667C15.3983 4.26667 14.9334 3.80174 14.9334 3.2C14.9334 2.59826 15.3983 2.13333 16 2.13333ZM8.53337 5.33333H10.6667C10.6667 6.512 11.6214 7.46667 12.8 7.46667H19.2C20.3787 7.46667 21.3334 6.512 21.3334 5.33333H23.4667C24.0694 5.33333 24.5334 5.7973 24.5334 6.4V25.6C24.5334 26.2027 24.0694 26.6667 23.4667 26.6667H8.53337C7.93067 26.6667 7.46671 26.2027 7.46671 25.6V6.4C7.46671 5.7973 7.93067 5.33333 8.53337 5.33333ZM20.2834 10.6667C19.9426 10.6669 19.602 10.7981 19.3417 11.0583L18.4 12L21.0667 14.6667L22.0084 13.725C22.5289 13.2045 22.5321 12.3622 22.0105 11.8417L21.225 11.0563C20.9648 10.796 20.6242 10.6664 20.2834 10.6667ZM17.0667 13.3333L11.0855 19.3146L11.9334 19.8L12.2667 20.8L13.2667 21.1333L13.7521 21.9813L19.7334 16L17.0667 13.3333ZM10.1938 21.3938L9.62504 23.0063C9.60846 23.0466 9.59997 23.0897 9.60004 23.1333C9.59997 23.1771 9.60854 23.2205 9.62527 23.261C9.642 23.3015 9.66655 23.3382 9.69751 23.3692C9.72848 23.4002 9.76526 23.4247 9.80573 23.4414C9.8462 23.4582 9.88958 23.4667 9.93337 23.4667C9.97402 23.4663 10.0143 23.4586 10.0521 23.4438H10.0542H10.0563L11.673 22.8729L10.1938 21.3938Z" fill="#206259"/>
</svg>
